<svg width="379" height="418" xmlns="http://www.w3.org/2000/svg" xmlns:xlink="http://www.w3.org/1999/xlink" overflow="hidden"><g transform="translate(-459 -128)"><path d="M585.869 314.658 588.823 347.982 588.578 347.878C583.692 344.529 581.019 338.471 582.276 332.302ZM701.887 159.088 751.824 169.258C760.05 170.933 765.36 178.96 763.685 187.186L742.287 292.25 713.689 292.25Z" fill="#E33C58" fill-rule="evenodd"/><path d="M677.757 136.764C686.118 136.005 693.51 142.167 694.269 150.527L710.401 328.197 710.308 329.047 617.531 142.232Z" fill="#E33C58" fill-rule="evenodd"/><path d="M513.869 223.635 554.155 263.524C502.751 315.439 503.166 399.196 555.081 450.599 606.997 502.002 690.753 501.587 742.156 449.672 793.56 397.757 793.145 314.001 741.229 262.597 737.985 259.385 734.616 256.374 731.138 253.566L720.934 246.142 761.239 205.436 766.702 209.41C771.67 213.421 776.483 217.722 781.118 222.311 855.283 295.745 855.876 415.397 782.442 489.561 709.009 563.726 589.357 564.318 515.193 490.885 441.028 417.452 440.435 297.8 513.869 223.635Z" fill="#7C4FFF" fill-rule="evenodd"/><path d="M472.932 203.497C469.198 195.979 472.266 186.857 479.784 183.123L585.827 130.459C593.346 126.725 602.468 129.793 606.202 137.311L685.553 297.092C689.287 304.611 686.219 313.733 678.701 317.467L572.658 370.131C565.139 373.865 556.017 370.797 552.283 363.278Z" fill="#E33C58" fill-rule="evenodd"/><path d="M630.852 337.003 746.652 220.049 786.938 259.938 671.138 376.891Z" fill="#7C4FFF" fill-rule="evenodd"/><path d="M614.488 390.6C595.023 371.327 594.867 339.922 614.141 320.456 633.415 300.991 664.819 300.835 684.285 320.109 703.751 339.383 703.906 370.787 684.633 390.253 665.359 409.719 633.954 409.874 614.488 390.6Z" fill="#7C4FFF" fill-rule="evenodd"/></g></svg>