<svg width="200" height="200" viewBox="0 0 200 200" fill="none" xmlns="http://www.w3.org/2000/svg">
<g clip-path="url(#clip0_1145_2)">
<path d="M99.5 95.75C106.076 95.75 112.505 93.7999 117.973 90.1464C123.441 86.4928 127.702 81.2999 130.219 75.2242C132.736 69.1486 133.394 62.4631 132.111 56.0133C130.828 49.5634 127.661 43.6388 123.011 38.9887C118.361 34.3386 112.437 31.1719 105.987 29.8889C99.5369 28.6059 92.8514 29.2644 86.7758 31.781C80.7001 34.2976 75.5072 38.5594 71.8536 44.0273C68.2001 49.4952 66.25 55.9238 66.25 62.5C66.25 71.3185 69.7531 79.7757 75.9887 86.0113C82.2243 92.2469 90.6816 95.75 99.5 95.75ZM99.5 38.75C104.197 38.75 108.789 40.1429 112.695 42.7526C116.6 45.3623 119.645 49.0715 121.442 53.4113C123.24 57.751 123.71 62.5264 122.794 67.1334C121.877 71.7405 119.615 75.9723 116.294 79.2938C112.972 82.6153 108.74 84.8773 104.133 85.7937C99.5264 86.7101 94.751 86.2397 90.4113 84.4422C86.0715 82.6446 82.3623 79.6005 79.7526 75.6948C77.1429 71.7891 75.75 67.1973 75.75 62.5C75.75 56.2011 78.2522 50.1602 82.7062 45.7062C87.1602 41.2522 93.2011 38.75 99.5 38.75Z" fill="#7C4FFF"/>
<path d="M158.732 130.757C151.115 122.706 141.935 116.293 131.755 111.91C121.575 107.528 110.607 105.267 99.5238 105.267C88.44 105.267 77.4728 107.528 67.2924 111.91C57.1121 116.293 47.9325 122.706 40.315 130.757C38.6635 132.521 37.7463 134.848 37.75 137.265V162.25C37.75 164.769 38.7509 167.186 40.5325 168.967C42.3141 170.749 44.7305 171.75 47.25 171.75H151.75C154.27 171.75 156.686 170.749 158.468 168.967C160.249 167.186 161.25 164.769 161.25 162.25V137.265C161.267 134.855 160.367 132.529 158.732 130.757ZM151.75 162.25H47.25V137.217C53.9818 130.129 62.0856 124.484 71.0682 120.627C80.0508 116.77 89.7243 114.781 99.5 114.781C109.276 114.781 118.949 116.77 127.932 120.627C136.914 124.484 145.018 130.129 151.75 137.217V162.25Z" fill="#7C4FFF"/>
</g>
<defs>
<clipPath id="clip0_1145_2">
<rect width="171" height="171" fill="white" transform="translate(14 15)"/>
</clipPath>
</defs>
</svg>
