<svg width="200" height="200" viewBox="0 0 200 200" fill="none" xmlns="http://www.w3.org/2000/svg">
<g clip-path="url(#clip0_1534_2)">
<path fill-rule="evenodd" clip-rule="evenodd" d="M52.259 17.5998C45.509 18.4832 41.9423 20.1082 39.3923 22.5998C36.8507 25.0998 35.1923 28.5998 34.284 35.2082C33.3506 42.0165 33.334 51.0332 33.334 63.9582V135.375C36.6338 133.122 40.295 131.45 44.159 130.433C48.559 129.275 53.6923 129.275 61.2173 129.283H166.667V63.9665C166.667 51.0332 166.651 42.0165 165.717 35.2082C164.809 28.5998 163.151 25.0998 160.609 22.5998C158.059 20.1082 154.492 18.4832 147.742 17.5998C140.792 16.6832 131.592 16.6665 118.392 16.6665H81.609C68.409 16.6665 59.209 16.6832 52.259 17.5998ZM56.3257 54.9582C56.3257 51.2248 59.409 48.1998 63.2173 48.1998H136.784C138.592 48.1843 140.333 48.8859 141.624 50.1511C142.916 51.4163 143.654 53.1419 143.676 54.9498C143.656 56.7593 142.919 58.487 141.627 59.754C140.335 61.0209 138.593 61.7237 136.784 61.7082H63.2173C61.4093 61.7237 59.6688 61.0221 58.377 59.7569C57.0853 58.4917 56.3476 56.7662 56.3257 54.9582ZM63.2173 79.7332C61.4093 79.7176 59.6688 80.4193 58.377 81.6844C57.0853 82.9496 56.3476 84.6752 56.3257 86.4832C56.3257 90.2165 59.409 93.2415 63.2173 93.2415H109.192C111.002 93.2593 112.744 92.5586 114.038 91.2932C115.332 90.0278 116.07 88.3009 116.092 86.4915C116.073 84.6806 115.335 82.9516 114.041 81.6844C112.747 80.4172 111.003 79.7154 109.192 79.7332H63.2173Z" fill="#7C4FFF"/>
<path d="M62.2756 142.792H166.667C166.642 152.208 166.492 159.241 165.726 164.791C164.817 171.4 163.159 174.9 160.617 177.4C158.067 179.892 154.501 181.517 147.751 182.4C140.801 183.317 131.601 183.333 118.401 183.333H81.609C68.409 183.333 59.209 183.316 52.259 182.408C45.509 181.517 41.9423 179.892 39.3923 177.4C36.8507 174.9 35.1923 171.4 34.284 164.791C33.9423 162.291 33.7173 159.483 33.584 156.291C34.7262 153.17 36.6103 150.373 39.0739 148.142C41.5375 145.911 44.5067 144.312 47.7257 143.483C50.1423 142.85 53.284 142.792 62.2756 142.792Z" fill="#7C4FFF"/>
</g>
<defs>
<clipPath id="clip0_1534_2">
<rect width="200" height="200" fill="white"/>
</clipPath>
</defs>
</svg>
