<svg width="200" height="200" viewBox="0 0 200 200" fill="none" xmlns="http://www.w3.org/2000/svg">
<path d="M58 151.5H148.5V175.5H21.5V48.5H51.5V145V151.5H58Z" stroke="white" stroke-width="13"/>
<rect x="51.5" y="24.5" width="127" height="127" stroke="white" stroke-width="13"/>
<path d="M155.195 55.3557L149.22 52.859V93.1177L160.054 66.9919C161.882 62.4444 159.787 57.2282 155.195 55.3557ZM68.2571 71.8515L90.3704 125.129C91.0216 126.75 92.1323 128.145 93.566 129.143C94.9997 130.141 96.6938 130.698 98.44 130.746C99.5992 130.746 100.803 130.523 101.962 130.033L134.82 116.435C138.164 115.053 140.215 111.754 140.304 108.454C140.348 107.295 140.125 106.002 139.724 104.843L117.433 51.5661C116.802 49.9344 115.696 48.5302 114.256 47.5363C112.817 46.5423 111.112 46.0046 109.363 45.9932C108.204 45.9932 107.045 46.2607 105.93 46.6619L73.1167 60.2598C70.9355 61.153 69.1983 62.8759 68.287 65.0496C67.3757 67.2233 67.365 69.6699 68.2571 71.8515ZM140.259 54.9098C140.259 52.545 139.32 50.277 137.648 48.6048C135.975 46.9326 133.707 45.9932 131.343 45.9932H124.878L140.259 83.1757" fill="white"/>
</svg>
