<svg width="200" height="200" viewBox="0 0 200 200" fill="none" xmlns="http://www.w3.org/2000/svg">
<path d="M142.25 121.875H56.75L28.25 150.375V36.375C28.25 34.4853 29.0007 32.6731 30.3369 31.3369C31.6731 30.0007 33.4853 29.25 35.375 29.25H142.25C144.14 29.25 145.952 30.0007 147.288 31.3369C148.624 32.6731 149.375 34.4853 149.375 36.375V114.75C149.375 116.64 148.624 118.452 147.288 119.788C145.952 121.124 144.14 121.875 142.25 121.875ZM177.875 79.125V178.875L149.375 150.375H71C69.1103 150.375 67.2981 149.624 65.9619 148.288C64.6257 146.952 63.875 145.14 63.875 143.25V136.125H163.625V72H170.75C172.64 72 174.452 72.7507 175.788 74.0869C177.124 75.4231 177.875 77.2353 177.875 79.125ZM72.3537 43.5C66.155 43.5 61.1675 44.925 57.32 47.7038C53.615 50.625 51.7625 54.6863 51.8337 60.315L51.905 60.5287H65.6562C65.7275 58.3912 66.3688 56.7525 67.6513 55.6125C68.9706 54.5184 70.6402 53.9366 72.3537 53.9737C74.5625 53.9737 76.415 54.6863 77.6975 55.9688C78.98 57.3225 79.55 59.175 79.55 61.3125C79.55 63.5925 79.0513 65.5163 77.9113 67.155C76.9138 68.7938 75.4175 70.2188 73.565 71.3587C69.9312 73.7812 67.4375 75.9187 66.0837 77.8425C64.6587 79.695 63.875 82.6875 63.875 86.25H78.125C78.125 84.0412 78.41 82.26 79.0513 80.9775C79.6925 79.695 80.9038 78.4125 82.685 77.2725C85.8913 75.5625 88.5275 73.4963 90.5938 70.6462C92.66 67.7962 93.7287 64.875 93.7287 61.3125C93.7287 55.8975 91.805 51.5512 87.9575 48.345C84.1813 45.1387 78.98 43.5 72.3537 43.5ZM63.875 93.375V107.625H78.125V93.375H63.875ZM106.625 107.625H120.875V93.375H106.625V107.625ZM106.625 43.5V86.25H120.875V43.5H106.625Z" fill="#7C4FFF"/>
</svg>
