<svg width="200" height="200" viewBox="0 0 200 200" fill="none" xmlns="http://www.w3.org/2000/svg">
<mask id="path-1-outside-1_802_2" maskUnits="userSpaceOnUse" x="13" y="16" width="174" height="174" fill="black">
<rect fill="white" x="13" y="16" width="174" height="174"/>
<path fill-rule="evenodd" clip-rule="evenodd" d="M185 103C185 149.944 146.944 188 100 188C53.0558 188 15 149.944 15 103C15 56.0558 53.0558 18 100 18C146.944 18 185 56.0558 185 103ZM116.692 41.5657L132.677 44.7849C135.31 45.3151 137.01 47.8561 136.474 50.46L135.179 56.7489L135.691 56.237L137.44 57.495C139.03 58.7646 140.571 60.1261 142.055 61.5787C165.795 84.8241 165.985 122.7 142.478 146.176C118.972 169.653 80.6707 169.84 56.9304 146.595C35.5196 125.631 33.264 92.7677 50.2704 69.2983L43.4027 55.6232C42.2074 53.2434 43.1895 50.3559 45.5961 49.1739L79.5411 32.5033C81.948 31.3213 84.868 32.2924 86.0632 34.6722L109.84 82.0176L111.734 80.126L89.6894 36.23L108.968 34.4991C111.645 34.2588 114.011 36.2094 114.254 38.8557L117.513 74.3546L119.457 72.4135L116.692 41.5657ZM84.0148 104.103L75.3256 108.371C72.9187 109.553 69.9987 108.582 68.8034 106.201L60.0612 88.7938C54.0828 103.889 57.3094 121.712 69.6988 133.843C86.3174 150.114 113.128 149.983 129.583 133.549C143.664 119.486 145.598 98.0407 135.447 81.9495L115.64 101.731C116.225 106.349 114.737 111.177 111.169 114.74C104.999 120.902 94.9465 120.951 88.7153 114.85C85.6858 111.884 84.1174 108.01 84.0148 104.103Z"/>
</mask>
<path fill-rule="evenodd" clip-rule="evenodd" d="M185 103C185 149.944 146.944 188 100 188C53.0558 188 15 149.944 15 103C15 56.0558 53.0558 18 100 18C146.944 18 185 56.0558 185 103ZM116.692 41.5657L132.677 44.7849C135.31 45.3151 137.01 47.8561 136.474 50.46L135.179 56.7489L135.691 56.237L137.44 57.495C139.03 58.7646 140.571 60.1261 142.055 61.5787C165.795 84.8241 165.985 122.7 142.478 146.176C118.972 169.653 80.6707 169.84 56.9304 146.595C35.5196 125.631 33.264 92.7677 50.2704 69.2983L43.4027 55.6232C42.2074 53.2434 43.1895 50.3559 45.5961 49.1739L79.5411 32.5033C81.948 31.3213 84.868 32.2924 86.0632 34.6722L109.84 82.0176L111.734 80.126L89.6894 36.23L108.968 34.4991C111.645 34.2588 114.011 36.2094 114.254 38.8557L117.513 74.3546L119.457 72.4135L116.692 41.5657ZM84.0148 104.103L75.3256 108.371C72.9187 109.553 69.9987 108.582 68.8034 106.201L60.0612 88.7938C54.0828 103.889 57.3094 121.712 69.6988 133.843C86.3174 150.114 113.128 149.983 129.583 133.549C143.664 119.486 145.598 98.0407 135.447 81.9495L115.64 101.731C116.225 106.349 114.737 111.177 111.169 114.74C104.999 120.902 94.9465 120.951 88.7153 114.85C85.6858 111.884 84.1174 108.01 84.0148 104.103Z" fill="#7C4FFF"/>
<path d="M132.677 44.7849L132.282 46.7455L132.282 46.7456L132.677 44.7849ZM116.692 41.5657L117.087 39.605L114.461 39.0762L114.7 41.7442L116.692 41.5657ZM136.474 50.46L138.433 50.8634L138.433 50.8634L136.474 50.46ZM135.179 56.7489L133.22 56.3455L131.875 62.875L136.592 58.1641L135.179 56.7489ZM135.691 56.237L136.859 54.6134L135.48 53.6213L134.278 54.8219L135.691 56.237ZM137.44 57.495L138.688 55.932L138.649 55.9007L138.608 55.8714L137.44 57.495ZM142.055 61.5787L143.454 60.1497L143.454 60.1496L142.055 61.5787ZM142.478 146.176L141.065 144.761L141.065 144.761L142.478 146.176ZM56.9304 146.595L58.3296 145.166L58.3296 145.166L56.9304 146.595ZM50.2704 69.2983L51.8899 70.4718L52.6034 69.4873L52.0577 68.4007L50.2704 69.2983ZM43.4027 55.6232L45.19 54.7256L45.1899 54.7255L43.4027 55.6232ZM45.5961 49.1739L44.7144 47.3787L44.7144 47.3787L45.5961 49.1739ZM79.5411 32.5033L78.6595 30.708L78.6595 30.7081L79.5411 32.5033ZM86.0632 34.6722L87.8505 33.7746L87.8505 33.7746L86.0632 34.6722ZM109.84 82.0176L108.053 82.9152L109.295 85.3887L111.254 83.4327L109.84 82.0176ZM111.734 80.126L113.148 81.5411L114.17 80.5199L113.522 79.2285L111.734 80.126ZM89.6894 36.23L89.5106 34.238L86.583 34.5008L87.9021 37.1275L89.6894 36.23ZM108.968 34.4991L108.789 32.5071L108.789 32.5071L108.968 34.4991ZM114.254 38.8557L112.262 39.0386V39.0386L114.254 38.8557ZM117.513 74.3546L115.521 74.5374L115.911 78.7812L118.926 75.7697L117.513 74.3546ZM119.457 72.4135L120.87 73.8286L121.532 73.1672L121.449 72.235L119.457 72.4135ZM84.0148 104.103L86.0141 104.051L85.9321 100.934L83.1331 102.308L84.0148 104.103ZM75.3256 108.371L76.2072 110.166L76.2072 110.166L75.3256 108.371ZM68.8034 106.201L70.5907 105.304L70.5907 105.304L68.8034 106.201ZM60.0612 88.7938L61.8485 87.8962L59.8453 83.9074L58.2017 88.0573L60.0612 88.7938ZM69.6988 133.843L68.2995 135.272L68.2995 135.272L69.6988 133.843ZM129.583 133.549L128.169 132.134L128.169 132.134L129.583 133.549ZM135.447 81.9495L137.139 80.8824L135.804 78.7665L134.034 80.5343L135.447 81.9495ZM115.64 101.731L114.227 100.316L113.533 101.009L113.656 101.983L115.64 101.731ZM111.169 114.74L112.582 116.155L112.582 116.155L111.169 114.74ZM88.7153 114.85L87.3161 116.279L88.7153 114.85ZM100 190C148.049 190 187 151.049 187 103H183C183 148.84 145.84 186 100 186V190ZM13 103C13 151.049 51.9512 190 100 190V186C54.1604 186 17 148.84 17 103H13ZM100 16C51.9512 16 13 54.9512 13 103H17C17 57.1604 54.1604 20 100 20V16ZM187 103C187 54.9512 148.049 16 100 16V20C145.84 20 183 57.1604 183 103H187ZM133.072 42.8243L117.087 39.605L116.297 43.5263L132.282 46.7455L133.072 42.8243ZM138.433 50.8634C139.196 47.1554 136.772 43.5694 133.072 42.8243L132.282 46.7456C133.848 47.0609 134.824 48.5568 134.515 50.0566L138.433 50.8634ZM137.137 57.1524L138.433 50.8634L134.515 50.0565L133.22 56.3455L137.137 57.1524ZM134.278 54.8219L133.765 55.3338L136.592 58.1641L137.104 57.6521L134.278 54.8219ZM138.608 55.8714L136.859 54.6134L134.523 57.8606L136.272 59.1185L138.608 55.8714ZM143.454 60.1496C141.922 58.6498 140.331 57.2437 138.688 55.932L136.192 59.0579C137.73 60.2856 139.22 61.6024 140.655 63.0078L143.454 60.1496ZM143.892 147.591C168.186 123.328 167.99 84.1737 143.454 60.1497L140.655 63.0078C163.601 85.4744 163.784 122.071 141.065 144.761L143.892 147.591ZM55.5311 148.024C80.0544 172.036 119.61 171.842 143.892 147.591L141.065 144.761C118.334 167.463 81.2871 167.644 58.3296 145.166L55.5311 148.024ZM48.6509 68.1248C31.0707 92.386 33.4031 126.358 55.5312 148.024L58.3296 145.166C37.636 124.904 35.4573 93.1494 51.8899 70.4718L48.6509 68.1248ZM41.6154 56.5208L48.4832 70.1959L52.0577 68.4007L45.19 54.7256L41.6154 56.5208ZM44.7144 47.3787C41.3218 49.045 39.9155 53.1362 41.6155 56.5208L45.1899 54.7255C44.4994 53.3506 45.0572 51.6667 46.4778 50.969L44.7144 47.3787ZM78.6595 30.7081L44.7144 47.3787L46.4777 50.9691L80.4227 34.2984L78.6595 30.7081ZM87.8505 33.7746C86.1569 30.4027 82.0402 29.0478 78.6595 30.708L80.4227 34.2985C81.8557 33.5947 83.579 34.1822 84.276 35.5699L87.8505 33.7746ZM111.628 81.12L87.8505 33.7746L84.276 35.5698L108.053 82.9152L111.628 81.12ZM110.321 78.7109L108.427 80.6025L111.254 83.4327L113.148 81.5411L110.321 78.7109ZM87.9021 37.1275L109.947 81.0236L113.522 79.2285L91.4767 35.3324L87.9021 37.1275ZM108.789 32.5071L89.5106 34.238L89.8682 38.2219L109.147 36.4911L108.789 32.5071ZM116.245 38.6729C115.9 34.9076 112.544 32.17 108.789 32.5071L109.147 36.4911C110.745 36.3476 112.122 37.5111 112.262 39.0386L116.245 38.6729ZM119.505 74.1717L116.245 38.6728L112.262 39.0386L115.521 74.5374L119.505 74.1717ZM118.043 70.9984L116.1 72.9395L118.926 75.7697L120.87 73.8286L118.043 70.9984ZM114.7 41.7442L117.465 72.592L121.449 72.235L118.684 41.3871L114.7 41.7442ZM83.1331 102.308L74.444 106.576L76.2072 110.166L84.8964 105.899L83.1331 102.308ZM74.444 106.575C73.011 107.279 71.2877 106.692 70.5907 105.304L67.0161 107.099C68.7097 110.471 72.8265 111.826 76.2072 110.166L74.444 106.575ZM70.5907 105.304L61.8485 87.8962L58.2739 89.6914L67.0161 107.099L70.5907 105.304ZM58.2017 88.0573C51.9358 103.878 55.3176 122.561 68.2995 135.272L71.098 132.414C59.3013 120.863 56.2298 103.899 61.9207 89.5302L58.2017 88.0573ZM68.2995 135.272C85.701 152.31 113.766 152.172 130.996 134.964L128.169 132.134C112.49 147.793 86.9338 147.919 71.098 132.414L68.2995 135.272ZM130.996 134.964C145.752 120.227 147.778 97.7491 137.139 80.8824L133.756 83.0165C143.417 98.3323 141.577 118.744 128.169 132.134L130.996 134.964ZM134.034 80.5343L114.227 100.316L117.053 103.146L136.86 83.3646L134.034 80.5343ZM113.656 101.983C114.166 106.009 112.87 110.215 109.756 113.325L112.582 116.155C116.604 112.139 118.284 106.689 117.624 101.48L113.656 101.983ZM109.756 113.325C104.362 118.712 95.5629 118.756 90.1145 113.421L87.3161 116.279C94.3301 123.147 105.637 123.092 112.582 116.155L109.756 113.325ZM90.1145 113.421C87.4686 110.83 86.1036 107.455 86.0141 104.051L82.0155 104.156C82.1313 108.564 83.903 112.937 87.3161 116.279L90.1145 113.421Z" fill="#AF63F0" mask="url(#path-1-outside-1_802_2)"/>
</svg>
