<svg width="200" height="200" viewBox="0 0 200 200" fill="none" xmlns="http://www.w3.org/2000/svg">
<g clip-path="url(#clip0_1539_2)">
<path d="M77.6729 25.2929C77.2883 25.2926 76.9015 25.3049 76.5127 25.3296C70.2959 25.7261 63.9948 29.8351 61.7549 35.8519C48.4456 71.6066 41.7999 86.1898 37.7315 122.913C43.4475 128.182 50.087 133.245 57.3604 137.805L83.3002 61.0605L90.2096 63.3917L63.7807 141.601C71.4018 145.85 79.5737 149.505 87.9995 152.258L117.455 73.5351L124.291 76.0858L95.019 154.321C102.618 156.312 110.333 157.524 117.98 157.788L148.962 88.0858L155.64 91.0523L126.001 157.715C134.524 157.232 142.878 155.462 150.781 152.137C167.702 131.104 179.153 109.252 183.789 84.6796C185.778 74.1358 178.023 63.928 162.609 63.2694L160.205 63.1593L159.35 60.9132C156.049 52.1679 151.635 49.1581 147.046 48.2296C142.456 47.3011 137.176 48.8292 133.191 51.1108L128.088 54.0288L127.734 48.1694C127.347 41.7648 123.694 36.6081 118.237 34.253C112.78 31.8976 105.321 32.2093 96.8256 38.1226L92.7483 40.9546L91.2592 36.2183C88.7135 28.1066 83.444 25.2866 77.6733 25.2925L77.6729 25.2929ZM40.3432 73.5718C27.7897 91.1905 18.6432 117.016 20.0803 140.491C30.8381 149.022 41.4124 153.652 51.3549 154.334C56.8842 154.712 62.269 153.91 67.5288 151.819C53.6831 145.086 41.2163 136.376 31.3592 127.002L30.0534 125.769L30.2487 123.974C32.512 102.631 35.6963 88.2319 40.344 73.5718H40.3432Z" fill="#7C4FFF"/>
</g>
<defs>
<clipPath id="clip0_1539_2">
<rect width="200" height="200" fill="white"/>
</clipPath>
</defs>
</svg>
