<svg width="200" height="200" viewBox="0 0 200 200" fill="none" xmlns="http://www.w3.org/2000/svg">
<g clip-path="url(#clip0_1188_1017)">
<path d="M154.222 166.167H33.8331V45.7779H106.176L117.12 34.8335H33.8331C30.9305 34.8335 28.1467 35.9866 26.0942 38.039C24.0417 40.0915 22.8887 42.8753 22.8887 45.7779V166.167C22.8887 169.069 24.0417 171.853 26.0942 173.906C28.1467 175.958 30.9305 177.111 33.8331 177.111H154.222C157.125 177.111 159.908 175.958 161.961 173.906C164.013 171.853 165.166 169.069 165.166 166.167V84.0835L154.222 95.0279V166.167Z" fill="white"/>
<path d="M184.483 33.9576L166.042 15.5163C165.223 14.6956 164.251 14.0445 163.181 13.6002C162.11 13.1559 160.962 12.9272 159.803 12.9272C158.644 12.9272 157.497 13.1559 156.426 13.6002C155.356 14.0445 154.384 14.6956 153.565 15.5163L78.541 90.9782L72.4668 117.3C72.208 118.575 72.2352 119.893 72.5465 121.157C72.8577 122.421 73.4452 123.601 74.2668 124.611C75.0883 125.62 76.1235 126.436 77.2978 126.998C78.4721 127.56 79.7563 127.855 81.0582 127.861C81.7311 127.935 82.4101 127.935 83.0829 127.861L109.623 122.006L184.483 46.4343C185.304 45.6159 185.955 44.6436 186.399 43.5731C186.844 42.5026 187.072 41.355 187.072 40.196C187.072 39.037 186.844 37.8893 186.399 36.8189C185.955 35.7484 185.304 34.7761 184.483 33.9576ZM103.932 111.882L83.9038 116.315L88.5551 96.4504L145.028 39.594L160.46 55.0257L103.932 111.882ZM166.644 48.8421L151.212 33.4104L159.694 24.7643L175.235 40.3054L166.644 48.8421Z" fill="white"/>
</g>
<defs>
<clipPath id="clip0_1188_1017">
<rect width="197" height="197" fill="white" transform="translate(1 2)"/>
</clipPath>
</defs>
</svg>
